<?xml version="1.0" encoding="UTF-8" standalone="no"?>
<!DOCTYPE svg PUBLIC "-//W3C//DTD SVG 1.1//EN" "http://www.w3.org/Graphics/SVG/1.1/DTD/svg11.dtd">
<svg width="100%" height="100%" viewBox="0 0 255 255" version="1.1" xmlns="http://www.w3.org/2000/svg" xmlns:xlink="http://www.w3.org/1999/xlink" xml:space="preserve" xmlns:serif="http://www.serif.com/" style="fill-rule:evenodd;clip-rule:evenodd;stroke-linejoin:round;stroke-miterlimit:2;">
    <g id="Layer_2">
        <g id="Layer_1-2">
            <path d="M127.37,0C57.497,0 -0,57.497 0,127.37C0,197.243 57.497,254.74 127.37,254.74C129.27,254.74 131.12,254.54 133,254.46L133,173.46L105.2,173.46L105.2,141.26L133,141.26L133,117.48C133,89.89 149.79,74.89 174.36,74.89C182.645,74.855 190.924,75.289 199.16,76.19L199.16,105L182.16,105C176.31,105 172.53,106.22 170.16,108.36C167.79,110.5 166.72,113.56 166.38,117.26C166.3,118.26 166.25,119.26 166.25,120.37L166.25,141.23L198.04,141.23L194,173.42L166.26,173.42L166.26,248.65C216.14,232.649 251.278,187.427 254.46,135.14C254.61,132.57 254.74,129.99 254.74,127.37C254.74,57.497 197.243,-0 127.37,0Z" style="fill:rgb(23,47,80);fill-rule:nonzero;"/>
            <path d="M199.16,76.17L199.16,76.19L199.17,76.19L199.16,76.17Z" style="fill:rgb(0,119,181);fill-rule:nonzero;"/>
            <path d="M199.16,76.17L199.16,76.19L199.17,76.19L199.16,76.17Z" style="fill-opacity:0.2;fill-rule:nonzero;"/>
            <path d="M234.9,195.6C246.456,177.44 253.189,156.628 254.46,135.14L199.2,76.22L199.2,105L182.2,105C176.35,105 172.57,106.22 170.2,108.36C167.83,110.5 166.76,113.56 166.42,117.26C166.34,118.26 166.29,119.26 166.29,120.37L166.29,141.23L198.08,141.23L194,173.42L166.26,173.42L166.26,248.65C194.621,239.517 218.913,220.743 234.9,195.6Z" style="fill:rgb(14,29,51);fill-rule:nonzero;"/>
            <path d="M132.99,202.96L132.99,173.44L105.2,173.44L132.99,202.96Z" style="fill:rgb(14,29,51);fill-rule:nonzero;"/>
        </g>
    </g>
</svg>
