<?xml version="1.0" encoding="UTF-8" standalone="no"?>
<!DOCTYPE svg PUBLIC "-//W3C//DTD SVG 1.1//EN" "http://www.w3.org/Graphics/SVG/1.1/DTD/svg11.dtd">
<svg width="100%" height="100%" viewBox="0 0 256 256" version="1.1" xmlns="http://www.w3.org/2000/svg" xmlns:xlink="http://www.w3.org/1999/xlink" xml:space="preserve" xmlns:serif="http://www.serif.com/" style="fill-rule:evenodd;clip-rule:evenodd;stroke-linejoin:round;stroke-miterlimit:2;">
    <g id="Layer_2">
        <g id="Layer_1-2">
            <path d="M255.77,121.67C255.6,118.67 255.35,115.67 255,112.67C247.359,48.608 192.417,-0.17 127.901,-0.17C57.682,-0.17 -0.099,57.611 -0.099,127.83C-0.099,191.584 47.533,246.108 110.71,254.67C115.04,255.26 119.43,255.67 123.87,255.8C125.25,255.86 126.6,255.97 127.99,255.97C198.201,255.975 255.984,198.211 256,128C256,125.87 255.9,123.77 255.77,121.67ZM208.4,92.41L208.43,166.43C208.43,189.377 189.547,208.26 166.6,208.26C166.597,208.26 166.593,208.26 166.59,208.26L92.59,208.26C82.246,208.275 72.258,204.433 64.59,197.49L61.48,194.38C54.537,186.712 50.695,176.724 50.71,166.38L50.71,92.38C50.743,69.455 69.615,50.61 92.54,50.61C92.56,50.61 92.58,50.61 92.6,50.61L166.6,50.61C177.578,50.588 188.132,54.903 195.95,62.61L196.4,63.06C204.107,70.878 208.422,81.432 208.4,92.41Z" style="fill:rgb(23,47,80);fill-rule:nonzero;"/>
            <path d="M131.4,101.34C115.985,101.34 103.3,114.025 103.3,129.44C103.3,144.855 115.985,157.54 131.4,157.54C146.815,157.54 159.5,144.855 159.5,129.44C159.484,114.031 146.809,101.356 131.4,101.34Z" style="fill:rgb(23,47,80);fill-rule:nonzero;"/>
            <path d="M164.82,64.66L94.38,64.66C78.164,64.66 64.82,78.004 64.82,94.22L64.82,164.66C64.82,180.876 78.164,194.22 94.38,194.22L164.82,194.22C181.036,194.22 194.38,180.876 194.38,164.66L194.38,94.22C194.38,78.004 181.036,64.66 164.82,64.66ZM131.4,171.59C108.277,171.59 89.25,152.563 89.25,129.44C89.25,106.317 108.277,87.29 131.4,87.29C154.523,87.29 173.55,106.317 173.55,129.44C173.528,152.555 154.515,171.568 131.4,171.59ZM173.09,95.32C173.077,95.32 173.063,95.32 173.05,95.32C168.14,95.32 164.1,91.28 164.1,86.37C164.1,81.46 168.14,77.42 173.05,77.42C177.96,77.42 182,81.46 182,86.37C182,91.265 177.985,95.298 173.09,95.32Z" style="fill:rgb(23,47,80);fill-rule:nonzero;"/>
            <path d="M256,128C256,125.87 255.9,123.77 255.77,121.67L196.39,63.1C204.098,70.917 208.413,81.472 208.39,92.45L208.39,166.45C208.39,189.397 189.507,208.28 166.56,208.28L92.56,208.28C82.215,208.296 72.228,204.454 64.56,197.51L123.78,255.84C125.16,255.9 126.51,256.01 127.9,256.01C127.933,256.01 127.967,256.01 128,256.01C198.219,256.01 256,198.229 256,128.01C256,128.007 256,128.003 256,128Z" style="fill:rgb(14,29,51);fill-rule:nonzero;"/>
            <path d="M131.4,101.34C115.985,101.34 103.3,114.025 103.3,129.44C103.3,144.855 115.985,157.54 131.4,157.54C146.815,157.54 159.5,144.855 159.5,129.44C159.484,114.031 146.809,101.356 131.4,101.34Z" style="fill:rgb(14,29,51);fill-rule:nonzero;"/>
            <path d="M164.82,64.66L94.38,64.66C78.164,64.66 64.82,78.004 64.82,94.22L64.82,164.66C64.82,180.876 78.164,194.22 94.38,194.22L164.82,194.22C181.036,194.22 194.38,180.876 194.38,164.66L194.38,94.22C194.38,78.004 181.036,64.66 164.82,64.66ZM131.4,171.59C108.277,171.59 89.25,152.563 89.25,129.44C89.25,106.317 108.277,87.29 131.4,87.29C154.523,87.29 173.55,106.317 173.55,129.44C173.528,152.555 154.515,171.568 131.4,171.59ZM173.09,95.32C173.077,95.32 173.063,95.32 173.05,95.32C168.14,95.32 164.1,91.28 164.1,86.37C164.1,81.46 168.14,77.42 173.05,77.42C177.96,77.42 182,81.46 182,86.37C182,91.265 177.985,95.298 173.09,95.32Z" style="fill:rgb(14,29,51);fill-rule:nonzero;"/>
        </g>
    </g>
</svg>
