<?xml version="1.0" encoding="utf-8"?>
<!-- Generator: Adobe Illustrator 20.1.0, SVG Export Plug-In . SVG Version: 6.00 Build 0)  -->
<svg version="1.1" id="Find" xmlns="http://www.w3.org/2000/svg" xmlns:xlink="http://www.w3.org/1999/xlink" x="0px" y="0px"
	 viewBox="0 0 139 139" style="enable-background:new 0 0 139 139;" xml:space="preserve">
<style type="text/css">
	.st0{fill:#768C90;}
</style>
<path class="st0" d="M107.6,107.9L107.6,107.9c-3.8,3.8-9.8,3.8-13.6,0L31.4,45.3c-3.8-3.8-3.8-9.8,0-13.6l0,0
	c3.8-3.8,9.8-3.8,13.6,0l62.5,62.5C111.3,98,111.3,104.1,107.6,107.9z"/>
<path class="st0" d="M31.4,107.9L31.4,107.9c-3.8-3.8-3.8-9.8,0-13.6L94,31.7c3.8-3.8,9.8-3.8,13.6,0l0,0c3.8,3.8,3.8,9.8,0,13.6
	L45,107.9C41.3,111.6,35.2,111.6,31.4,107.9z"/>
</svg>
