<?xml version="1.0" encoding="UTF-8" standalone="no"?>
<!DOCTYPE svg PUBLIC "-//W3C//DTD SVG 1.1//EN" "http://www.w3.org/Graphics/SVG/1.1/DTD/svg11.dtd">
<svg width="100%" height="100%" viewBox="0 0 255 255" version="1.1" xmlns="http://www.w3.org/2000/svg" xmlns:xlink="http://www.w3.org/1999/xlink" xml:space="preserve" xmlns:serif="http://www.serif.com/" style="fill-rule:evenodd;clip-rule:evenodd;stroke-linejoin:round;stroke-miterlimit:2;">
    <g id="Layer_2">
        <g id="Layer_1-2">
            <path d="M253.69,113.22C253.53,111.87 253.41,110.51 253.22,109.22C244.223,46.883 190.238,0.13 127.255,0.13C57.437,0.13 -0.015,57.582 -0.015,127.4C-0.015,197.218 57.437,254.67 127.255,254.67C127.28,254.67 127.305,254.67 127.33,254.67C128.47,254.67 129.58,254.53 130.72,254.5C199.245,252.722 254.65,195.878 254.67,127.33C254.626,122.611 254.299,117.9 253.69,113.22ZM195.17,95.82C195.23,97.23 195.28,98.63 195.28,100.09C195.28,143.47 162.28,193.56 101.76,193.56C84.282,193.582 67.149,188.659 52.35,179.36C52.04,179.17 51.71,179 51.4,178.8L51.81,178.8C54.277,179.081 56.757,179.234 59.24,179.26C74.018,179.26 88.377,174.297 100,165.17C85.986,164.946 73.599,155.75 69.33,142.4C71.364,142.789 73.429,142.987 75.5,142.99C78.423,142.981 81.333,142.581 84.15,141.8C68.857,138.718 57.755,125.161 57.75,109.56L57.75,109.18C62.326,111.681 67.419,113.088 72.63,113.29C63.511,107.18 58.026,96.897 58.03,85.92C58.014,80.101 59.565,74.383 62.52,69.37C79.174,89.918 103.823,102.421 130.24,103.72C129.652,101.277 129.363,98.772 129.38,96.26C129.38,96.254 129.38,96.247 129.38,96.241C129.38,78.209 144.218,63.371 162.25,63.371C171.332,63.371 180.019,67.135 186.23,73.76C193.443,72.329 200.368,69.706 206.72,66L207.13,65.78C207.13,65.93 206.99,66.06 206.94,66.22C204.413,73.63 199.365,79.924 192.68,84C199.193,83.2 205.553,81.451 211.56,78.81C207.128,85.39 201.581,91.147 195.17,95.82Z" style="fill:rgb(23,47,80);fill-rule:nonzero;"/>
            <path d="M254.67,127.33C254.619,122.611 254.285,117.899 253.67,113.22L206.91,66.22C204.389,73.625 199.353,79.918 192.68,84C199.193,83.2 205.553,81.451 211.56,78.81C207.127,85.387 201.581,91.14 195.17,95.81C195.22,97.22 195.28,98.62 195.28,100.08C195.28,143.46 162.28,193.55 101.76,193.55C84.282,193.572 67.149,188.648 52.35,179.35L127.35,254.66C128.49,254.66 129.6,254.52 130.74,254.49C199.253,252.702 254.645,195.867 254.67,127.33Z" style="fill:rgb(14,29,51);fill-rule:nonzero;"/>
        </g>
    </g>
</svg>
